<svg xmlns="http://www.w3.org/2000/svg" viewBox="0 0 200 120">
  <g stroke="#003b70" stroke-width="5" stroke-linecap="round" fill="none">
    <path d="M100,110 C100,80 80,45 35,60" />
    <path d="M95,110 C95,75 70,35 45,40" />
    <path d="M90,110 C90,70 60,30 55,25" />
    <path d="M85,110 C85,65 50,25 65,15" />
    
    <path d="M100,110 C100,80 120,45 165,60" />
    <path d="M105,110 C105,75 130,35 155,40" />
    <path d="M110,110 C110,70 140,30 145,25" />
    <path d="M115,110 C115,65 150,25 135,15" />
  </g>
</svg>
